<svg width="111" height="21" viewBox="0 0 111 21" fill="none" xmlns="http://www.w3.org/2000/svg">
<g clip-path="url(#clip0_8321_49935)">
<path d="M26.378 18.8959V5.40948C26.378 4.84715 26.6913 4.5121 27.2567 4.5121H28.1801C28.3013 4.50086 28.4235 4.51636 28.538 4.55752C28.6525 4.59867 28.7564 4.66446 28.8424 4.75018C28.9283 4.8359 28.9942 4.93944 29.0353 5.05341C29.0764 5.16738 29.0916 5.28896 29.08 5.40948V6.09364C29.961 4.80029 31.2614 4.28014 32.6842 4.28014C35.7655 4.28014 37.8668 6.71923 37.8668 9.80264C37.8668 12.886 35.7702 15.3275 32.6842 15.3275C31.2708 15.3275 29.961 14.805 29.08 13.514V18.9029C29.08 19.4676 28.7455 19.7792 28.1801 19.7792H27.2685C27.148 19.7949 27.0255 19.7829 26.9105 19.7441C26.7954 19.7052 26.6909 19.6407 26.6048 19.5554C26.5188 19.47 26.4536 19.3662 26.4143 19.2519C26.375 19.1375 26.3626 19.0157 26.378 18.8959ZM35.1577 9.80732C35.1577 8.01491 34.0694 6.5271 32.1613 6.5271C30.2956 6.5271 29.0376 7.93291 29.0188 9.81904C29.0376 11.7169 30.2956 13.1133 32.1613 13.1133C34.0694 13.1016 35.1577 11.6208 35.1577 9.80732Z" fill="black"/>
<path d="M38.0786 9.80654C38.0786 6.72313 40.1987 4.28405 43.2753 4.28405C44.6887 4.28405 45.9796 4.8042 46.8795 6.09755V5.4087C46.8795 4.84637 47.1952 4.51132 47.7605 4.51132H48.6816C48.803 4.49971 48.9255 4.51494 49.0402 4.55593C49.155 4.59692 49.2592 4.66265 49.3455 4.74842C49.4317 4.83418 49.4978 4.93786 49.539 5.05201C49.5802 5.16616 49.5955 5.28797 49.5838 5.4087V14.2255C49.5838 14.7901 49.2493 15.1018 48.6816 15.1018H47.7629C47.6439 15.1152 47.5234 15.1018 47.4104 15.0625C47.2973 15.0232 47.1946 14.9591 47.11 14.8749C47.0253 14.7907 46.9608 14.6885 46.9213 14.5761C46.8818 14.4637 46.8683 14.3438 46.8819 14.2255V13.5226C45.982 14.8136 44.6816 15.3361 43.2776 15.3361C40.194 15.3314 38.0786 12.8876 38.0786 9.80654ZM46.9219 9.80654C46.9007 7.91104 45.664 6.52632 43.8006 6.52632C41.8925 6.52632 40.7806 8.02585 40.7806 9.81826C40.7806 11.6107 41.8925 13.1125 43.8006 13.1125C45.664 13.1008 46.9007 11.7161 46.9219 9.80654Z" fill="black"/>
<path d="M48.8989 19.4977C48.3759 19.2634 48.2723 18.8112 48.5008 18.3098L48.6492 17.956C48.8848 17.4124 49.257 17.3304 49.8011 17.539C50.2048 17.6901 50.6304 17.7748 51.0614 17.7897C52.7787 17.7897 53.7234 16.33 54.4772 14.5376L50.4725 5.55209C50.1993 4.94759 50.4937 4.50945 51.1627 4.50945H52.2958C52.5192 4.49355 52.7413 4.55481 52.9245 4.68286C53.1078 4.81092 53.241 4.99794 53.3017 5.21235L55.8576 11.6533L58.3099 5.21235C58.3801 4.99524 58.5216 4.8079 58.7117 4.68042C58.9019 4.55294 59.1295 4.49272 59.3582 4.50945H60.4677C61.1179 4.50945 61.41 4.94759 61.1391 5.55209L57.4925 13.9331C56.6539 15.8309 55.4595 19.9991 51.2051 19.9991C50.4094 19.9962 49.6233 19.8253 48.8989 19.4977Z" fill="black"/>
<path d="M65.4636 14.2256V0.905538C65.45 0.787288 65.4635 0.667512 65.503 0.555164C65.5425 0.442817 65.607 0.340806 65.6918 0.256758C65.7765 0.172711 65.8792 0.108802 65.9923 0.0698109C66.1053 0.0308196 66.2258 0.0177545 66.3447 0.0315926H67.2869C67.4057 0.0182111 67.526 0.0315932 67.6388 0.0707462C67.7517 0.109899 67.8542 0.173819 67.9388 0.257764C68.0235 0.341709 68.088 0.443526 68.1277 0.555664C68.1673 0.667801 68.1811 0.787382 68.168 0.905538V14.2256C68.1815 14.3439 68.168 14.4638 68.1285 14.5762C68.089 14.6886 68.0245 14.7908 67.9399 14.875C67.8552 14.9592 67.7525 15.0233 67.6395 15.0626C67.5264 15.1019 67.4059 15.1153 67.2869 15.1019H66.3447C66.2257 15.1153 66.1052 15.1019 65.9921 15.0626C65.8791 15.0233 65.7764 14.9592 65.6918 14.875C65.6071 14.7908 65.5426 14.6886 65.5031 14.5762C65.4636 14.4638 65.4501 14.3439 65.4636 14.2256Z" fill="black"/>
<path d="M69.1343 9.80654C69.1343 6.72313 71.2544 4.28405 74.331 4.28405C75.7444 4.28405 77.0353 4.8042 77.9375 6.09755V5.4087C77.9375 4.84637 78.2508 4.51132 78.8186 4.51132H79.7396C79.8609 4.50013 79.9832 4.51566 80.0978 4.55681C80.2124 4.59795 80.3164 4.66369 80.4025 4.74936C80.4887 4.83503 80.5548 4.93852 80.5961 5.05248C80.6375 5.16644 80.6531 5.28806 80.6419 5.4087V14.2255C80.6419 14.7901 80.305 15.1018 79.7396 15.1018H78.8186C78.6996 15.1152 78.5791 15.1018 78.466 15.0625C78.353 15.0232 78.2503 14.9591 78.1656 14.8749C78.081 14.7907 78.0165 14.6885 77.977 14.5761C77.9375 14.4637 77.924 14.3438 77.9375 14.2255V13.5226C77.0353 14.8136 75.7373 15.3361 74.331 15.3361C71.2521 15.3314 69.1343 12.8876 69.1343 9.80654ZM77.9776 9.80654C77.9587 7.91104 76.722 6.52632 74.8563 6.52632C72.9482 6.52632 71.8386 8.02585 71.8386 9.81826C71.8386 11.6107 72.9482 13.1008 74.8539 13.1008C76.722 13.1008 77.9587 11.7161 77.9776 9.80654Z" fill="black"/>
<path d="M82.8626 11.6624V6.56162H81.6847C81.6213 6.56781 81.5573 6.55994 81.4973 6.53858C81.4373 6.51722 81.3829 6.48289 81.3378 6.43808C81.2927 6.39327 81.2582 6.33908 81.2368 6.27941C81.2153 6.21974 81.2074 6.15608 81.2136 6.09301V4.99179C81.2072 4.92816 81.2149 4.86391 81.2362 4.80356C81.2574 4.7432 81.2917 4.68821 81.3366 4.64244C81.3815 4.59666 81.436 4.56122 81.4961 4.5386C81.5562 4.51597 81.6206 4.50672 81.6847 4.51148H82.9851L83.362 2.24109C83.3682 2.15197 83.3922 2.06496 83.4325 1.98513C83.4728 1.90529 83.5287 1.83421 83.5969 1.77602C83.665 1.71782 83.7441 1.67367 83.8295 1.64611C83.915 1.61856 84.0051 1.60816 84.0946 1.61551H84.8296C84.9228 1.6059 85.017 1.61713 85.1053 1.64839C85.1936 1.67965 85.2738 1.73013 85.3399 1.79616C85.4061 1.86219 85.4566 1.94208 85.4877 2.03001C85.5188 2.11793 85.5298 2.21167 85.5198 2.30435V4.51148H88.1605C88.2256 4.50488 88.2913 4.51277 88.3529 4.53458C88.4145 4.55638 88.4705 4.59156 88.5167 4.63755C88.5629 4.68353 88.5983 4.73919 88.6202 4.80046C88.6422 4.86173 88.6501 4.92709 88.6435 4.99179V6.07661C88.65 6.14078 88.6419 6.20558 88.6198 6.2662C88.5976 6.32682 88.562 6.38169 88.5156 6.42673C88.4692 6.47177 88.4132 6.50581 88.3517 6.52633C88.2902 6.54684 88.2249 6.5533 88.1605 6.54521H85.5292V11.7678C85.5292 12.7261 86.0121 13.101 86.5775 13.101C86.7181 13.1082 86.8586 13.0863 86.9902 13.0367C87.1218 12.9872 87.2417 12.911 87.3422 12.813C87.4427 12.715 87.5217 12.5973 87.5742 12.4674C87.6266 12.3376 87.6514 12.1982 87.647 12.0583C87.6494 11.933 87.6423 11.8077 87.6258 11.6835C87.5834 11.3507 87.6871 11.1633 88.0239 11.1633H89.1334C89.2551 11.1467 89.3787 11.176 89.4798 11.2453C89.5809 11.3147 89.6523 11.4192 89.68 11.5382C89.7393 11.7984 89.774 12.0635 89.7836 12.3301C89.7836 14.2889 88.4008 15.3315 86.4103 15.3315C84.6506 15.3315 82.8626 14.4974 82.8626 11.6624Z" fill="black"/>
<path d="M89.4946 9.84091C89.4946 6.81841 91.8221 4.27624 95.2802 4.27624C98.1306 4.27624 100.602 5.9843 100.811 9.36059C100.854 9.90417 100.498 10.1947 99.9327 10.1947H92.1142C92.0718 11.8067 93.4993 13.1211 95.6995 13.1211C96.6293 13.1214 97.5391 12.8536 98.3191 12.3503C98.5062 12.2118 98.7404 12.1517 98.9715 12.1828C99.2027 12.2139 99.4124 12.3337 99.5558 12.5166L99.7443 12.7509C100.121 13.168 100.1 13.6881 99.577 14.0841C98.4207 14.9354 97.0104 15.376 95.5723 15.3353C91.8009 15.3306 89.4946 12.8704 89.4946 9.84091ZM98.2107 8.50773C97.7914 6.8395 96.451 6.42244 95.3203 6.42244C94.1424 6.42244 92.7408 6.89105 92.239 8.50773H98.2107Z" fill="black"/>
<path d="M101.636 14.2263V5.40948C101.636 4.84716 101.949 4.51211 102.514 4.51211H103.395C103.961 4.51211 104.276 4.84716 104.276 5.40948V6.86918C104.632 5.05569 105.996 4.29186 107.084 4.29186C107.225 4.29683 107.365 4.31014 107.504 4.33169C107.975 4.37387 108.048 4.74875 108.048 5.16581V6.20845C108.048 6.74969 107.798 6.9793 107.398 6.91136C107.219 6.87072 107.037 6.84951 106.854 6.84809C105.848 6.84809 104.338 7.45259 104.338 10.9132V14.2263C104.338 14.7909 104.003 15.1025 103.438 15.1025H102.514C102.396 15.1161 102.275 15.1027 102.162 15.0634C102.049 15.0241 101.947 14.9599 101.862 14.8756C101.778 14.7914 101.713 14.6892 101.674 14.5767C101.635 14.4643 101.622 14.3445 101.636 14.2263Z" fill="black"/>
<path d="M21.8016 2.83842C21.6767 2.35492 21.4572 1.90064 21.1556 1.50155C20.8541 1.10245 20.4765 0.766372 20.0443 0.512506C19.6153 0.262384 19.1404 0.100163 18.6474 0.0353935C18.1544 -0.0293756 17.6534 0.00461723 17.1738 0.13537C16.6943 0.266124 16.2458 0.490994 15.855 0.796739C15.4641 1.10248 15.1387 1.48292 14.8979 1.91566L10.9659 8.83642L7.03107 1.91294C6.79006 1.48044 6.46449 1.10026 6.07353 0.794785C5.68257 0.489312 5.23411 0.264717 4.75457 0.134222C4.27502 0.00372691 3.77407 -0.0300314 3.28121 0.0349343C2.78835 0.0999 2.31354 0.262277 1.88472 0.512506C1.0159 1.03443 0.385736 1.87253 0.127954 2.84895C-0.129829 3.82538 0.0050593 4.86329 0.503993 5.74243L7.69688 18.4006C7.93993 18.834 8.2673 19.2148 8.6599 19.5209C9.0525 19.8271 9.50246 20.0524 9.98354 20.1837C10.3034 20.2722 10.6339 20.3169 10.9659 20.3167C11.343 20.3174 11.7178 20.2587 12.0765 20.143C12.9913 19.8555 13.762 19.2326 14.2321 18.4006L21.425 5.74243C21.9267 4.86036 22.0618 3.81822 21.8016 2.83842ZM2.50141 1.59812C2.78999 1.43006 3.10943 1.32104 3.44096 1.27746C3.77249 1.23389 4.10943 1.25663 4.432 1.34436C4.75457 1.43209 5.05626 1.58304 5.31937 1.78834C5.58248 1.99364 5.80169 2.24915 5.96415 2.53988L10.2537 10.0903L7.70779 14.5711C7.5681 14.8117 7.45466 15.0665 7.36943 15.3311L1.57365 5.11549C1.2375 4.52444 1.14636 3.8263 1.31961 3.16947C1.49286 2.51264 1.91683 1.94891 2.50141 1.59812ZM20.3554 5.12635L13.1652 17.7737C12.9441 18.1685 12.621 18.4973 12.2293 18.7263C11.8772 18.9337 11.4785 19.0504 11.0696 19.0656H10.9932C10.54 19.0706 10.094 18.9533 9.70248 18.7263C9.11607 18.3744 8.69094 17.8088 8.51765 17.1497C8.34436 16.4907 8.4366 15.7905 8.77472 15.1981L15.9676 2.53988C16.1847 2.14914 16.5034 1.82359 16.8903 1.59728C17.2772 1.37097 17.7181 1.25221 18.1669 1.25343C18.611 1.25374 19.0467 1.3738 19.4276 1.60083C19.7185 1.77095 19.9727 1.99667 20.1755 2.26498C20.3783 2.53329 20.5257 2.83887 20.6091 3.16411C20.7845 3.82254 20.6934 4.52312 20.3554 5.11549V5.12635Z" fill="black"/>
<path d="M11.0729 17.3905C11.2899 17.3964 11.5038 17.3378 11.6872 17.2222C11.8706 17.1066 12.0152 16.9392 12.1024 16.7414C12.1896 16.5436 12.2156 16.3245 12.1769 16.112C12.1383 15.8994 12.0368 15.7032 11.8854 15.5484C11.734 15.3936 11.5396 15.2872 11.3271 15.2428C11.1146 15.1984 10.8936 15.2181 10.6924 15.2993C10.4912 15.3806 10.319 15.5196 10.1976 15.6987C10.0763 15.8779 10.0115 16.0889 10.0114 16.3049C10.0089 16.4456 10.0344 16.5855 10.0865 16.7164C10.1385 16.8473 10.2162 16.9666 10.3148 17.0675C10.4135 17.1684 10.5313 17.2489 10.6614 17.3044C10.7915 17.3598 10.9313 17.3891 11.0729 17.3905Z" fill="black"/>
<path d="M106.598 13.8215C106.598 13.492 106.695 13.1698 106.878 12.8957C107.062 12.6217 107.322 12.4081 107.626 12.282C107.931 12.1559 108.266 12.1229 108.589 12.1872C108.912 12.2515 109.209 12.4102 109.442 12.6432C109.675 12.8763 109.834 13.1732 109.898 13.4964C109.963 13.8197 109.93 14.1547 109.804 14.4592C109.677 14.7637 109.464 15.024 109.19 15.2071C108.916 15.3902 108.594 15.4879 108.264 15.4879C107.822 15.4879 107.398 15.3124 107.086 14.9999C106.773 14.6873 106.598 14.2635 106.598 13.8215Z" fill="black" stroke="black" stroke-width="0.5"/>
</g>
<defs>
<clipPath id="clip0_8321_49935">
<rect width="111" height="21" fill="white"/>
</clipPath>
</defs>
</svg>
